:SAMPLES-PER-SECOND 24
:FULLY-SPECIFIED
:DEGREES
147
root  13.8093 38.4166 10.6042 18.1587 -68.4152 -12.007
RightUpLeg  -9.99521 7.29238 -0.347995
RightLeg  23.271 -5.60664 -2.85477
RightFoot  -20.6301 0.223203 4.46715
RightToes  -2.08645e-008 3.77894e-005 6.81332e-007
Spine  2.44044 0.707465 1.8658
Spine1  5.86245 0.372359 1.2507
HEad  -40.5057 40.178 -24.0783
LeftShoulder1  7.74242 -13.5196 -39.3145
LeftArm  3.97131 20.6715 -25.641
LeftForeArm  140.412 -77.8298 -128.821
LeftHand  -0.723277 -1.81919 11.822
RightShoulder  4.18181 6.90933 34.2671
RightArm  11.9916 -20.4199 31.0553
RightForeArm  80.8401 79.7792 69.0087
RightHand  -0.7647 6.0013 -8.10068
LeftUpLeg  -20.206 -4.00307 10.9792
LeftLeg  32.636 20.5576 13.9424
LeftFoot  -10.1899 0.197179 -13.5246
LeftToes  1.24767e-006 1.47042e-008 1.32732e-009
148
root  13.7276 38.3479 10.6621 15.4141 -66.9711 -9.48788
RightUpLeg  -9.93591 5.68299 -1.02189
RightLeg  24.7977 -5.35648 -2.91649
RightFoot  -21.1968 0.281037 4.92663
RightToes  -2.08645e-008 3.77894e-005 6.81332e-007
Spine  1.10336 -0.22539 -0.337184
Spine1  7.75792 -1.11284 3.26594
HEad  -41.0651 40.4025 -23.7173
LeftShoulder1  7.93925 -13.6696 -40.0254
LeftArm  3.62635 17.5541 -24.8305
LeftForeArm  134.177 -78.8788 -121.714
LeftHand  -0.771987 -1.61847 12.9481
RightShoulder  4.34575 7.00021 35.4651
RightArm  7.29497 -21.3563 33.4838
RightForeArm  81.534 79.7891 68.1806
RightHand  -0.826317 6.05015 -8.69051
LeftUpLeg  -20.1834 -6.47137 10.1459
LeftLeg  33.0332 21.3597 14.6282
LeftFoot  -10.0423 0.210489 -13.2269
LeftToes  1.24767e-006 1.47042e-008 1.32732e-009
149
root  13.4444 38.7076 10.7793 11.7898 -64.8517 -5.88535
RightUpLeg  -6.99332 5.56634 -1.78329
RightLeg  21.1694 -7.65674 -3.38433
RightFoot  -19.6383 0.243189 5.18263
RightToes  -2.08645e-008 3.77894e-005 6.81332e-007
Spine  0.0244306 -0.764436 -4.01362
Spine1  7.59208 -2.33984 6.44764
HEad  -37.7647 40.5878 -21.1839
LeftShoulder1  7.47595 -13.2263 -38.5516
LeftArm  3.48966 18.3235 -28.2266
LeftForeArm  142.928 -77.2249 -131.882
LeftHand  -0.718798 -1.32811 12.5677
RightShoulder  4.33403 6.95752 35.5199
RightArm  3.58481 -27.6696 36.1886
RightForeArm  102.131 80.328 92.1562
RightHand  -0.830426 5.83821 -8.8843
LeftUpLeg  -19.0954 -4.18588 8.99463
LeftLeg  30.2104 17.5159 11.0746
LeftFoot  -8.44276 0.380762 -13.0524
LeftToes  1.24767e-006 1.47042e-008 1.32732e-009
150
root  13.1065 39.2563 11.0699 10.7656 -63.8805 -3.93991
RightUpLeg  -4.51699 4.32742 -2.41016
RightLeg  15.7838 -7.60424 -3.28025
RightFoot  -16.248 0.124834 5.47602
RightToes  -2.08645e-008 3.77894e-005 6.81332e-007
Spine  -2.51189 -0.841465 -5.20011
Spine1  7.22402 -2.38389 6.98035
HEad  -33.0558 40.7628 -18.6896
LeftShoulder1  6.97054 -12.6775 -37.0077
LeftArm  3.67196 20.8259 -31.8116
LeftForeArm  156.197 -73.6057 -145.09
LeftHand  -0.631313 -1.14642 11.3526
RightShoulder  4.2771 6.90381 35.1929
RightArm  2.83384 -33.7579 37.1875
RightForeArm  123.905 79.2202 115.848
RightHand  -0.788957 6.02111 -8.33212
LeftUpLeg  -18.7 2.43882 8.2393
LeftLeg  27.1425 10.2413 6.00863
LeftFoot  -5.78514 0.663632 -12.942
LeftToes  1.24767e-006 1.47042e-008 1.32732e-009
151
root  12.8842 39.6912 11.4565 11.2913 -63.7527 -3.23724
RightUpLeg  -3.81791 0.177082 -3.38463
RightLeg  12.4144 -3.39312 -2.38752
RightFoot  -13.0618 0.00360078 6.14047
RightToes  -2.08645e-008 3.77894e-005 6.81332e-007
Spine  -5.33715 -0.620954 -4.21813
Spine1  7.20401 -1.74709 5.66734
HEad  -30.303 40.686 -17.6967
LeftShoulder1  6.70087 -12.3248 -36.2874
LeftArm  3.23678 22.7189 -33.7421
LeftForeArm  165.969 -70.4732 -152.178
LeftHand  -0.551002 -1.55198 9.38443
RightShoulder  4.21991 6.87438 34.7643
RightArm  4.56412 -36.3006 36.0557
RightForeArm  134.358 78.4718 123.967
RightHand  -0.645914 6.70032 -6.53234
LeftUpLeg  -19.4651 8.16 7.81795
LeftLeg  26.5779 3.28194 2.1248
LeftFoot  -3.53657 0.989449 -14.1378
LeftToes  1.24767e-006 1.47042e-008 1.32732e-009
